<svg xmlns="http://www.w3.org/2000/svg" width="1800" height="1040" viewBox="0 0 1800 1040" role="img" aria-labelledby="title desc">
  <title id="title">CyberSecurity_OWASP cached scenario architecture</title>
  <desc id="desc">Offline scenario authoring produces a validated cache. The OpenEnv runtime loads cached bundles, exchanges typed actions with one LLM agent, sends terminal rewards into GRPO training, and feeds failures back into scenario sampling.</desc>
  <style>
    text { font-family: Arial, Helvetica, sans-serif; fill: #111827; }
    .title { font-size: 34px; font-weight: 700; }
    .subtitle { font-size: 16px; fill: #475569; }
    .lane-title { font-size: 21px; font-weight: 700; }
    .lane-subtitle { font-size: 14px; fill: #475569; }
    .box-title { font-size: 16px; font-weight: 700; }
    .small { font-size: 13px; fill: #334155; }
    .lane { fill: #f8fafc; stroke: #cbd5e1; stroke-width: 2; rx: 18; }
    .blue { fill: #eff6ff; stroke: #2563eb; stroke-width: 2; rx: 12; }
    .green { fill: #ecfdf5; stroke: #059669; stroke-width: 2; rx: 12; }
    .orange { fill: #fff7ed; stroke: #ea580c; stroke-width: 2; rx: 12; }
    .purple { fill: #f5f3ff; stroke: #7c3aed; stroke-width: 2; rx: 12; }
    .gray { fill: #f1f5f9; stroke: #64748b; stroke-width: 2; rx: 12; }
    .arrow { stroke: #0f172a; stroke-width: 4; fill: none; marker-end: url(#arrow); stroke-linecap: round; stroke-linejoin: round; }
    .dash { stroke-dasharray: 10 10; }
    svg { background: #ffffff; }
    .background { fill: #ffffff; }
    .label { font-size: 14px; font-weight: 700; fill: #0f172a; paint-order: stroke; stroke: #ffffff; stroke-width: 5; stroke-linejoin: round; }
  </style>
  <defs>
    <marker id="arrow" markerWidth="18" markerHeight="14" refX="16" refY="7" orient="auto" markerUnits="userSpaceOnUse">
      <path d="M0,0 L18,7 L0,14 Z" fill="#0f172a" />
    </marker>
  </defs>

  <rect width="1800" height="1040" class="background" />

  <text x="50" y="52" class="title">CyberSecurity_OWASP Cached Scenario Architecture</text>
  <text x="50" y="80" class="subtitle">Validated scenario bundles feed deterministic OpenEnv episodes, GRPO rollouts, Trackio metrics, and demo artifacts.</text>

  <rect x="40" y="115" width="335" height="705" class="lane" />
  <text x="207" y="151" text-anchor="middle" class="lane-title">Scenario Factory</text>
  <text x="207" y="174" text-anchor="middle" class="lane-subtitle">offline authoring and cache prep</text>

  <rect x="75" y="205" width="265" height="74" class="blue" />
  <text x="207" y="236" text-anchor="middle" class="box-title">LLM Author</text>
  <text x="207" y="258" text-anchor="middle" class="small">config-driven scenario drafts</text>

  <rect x="75" y="300" width="265" height="74" class="blue" />
  <text x="207" y="331" text-anchor="middle" class="box-title">ScenarioSpec</text>
  <text x="207" y="353" text-anchor="middle" class="small">policy, layout, bug target</text>

  <rect x="75" y="395" width="265" height="74" class="blue" />
  <text x="207" y="426" text-anchor="middle" class="box-title">A01 Mutator</text>
  <text x="207" y="448" text-anchor="middle" class="small">FastAPI variants and traps</text>

  <rect x="75" y="490" width="265" height="74" class="blue" />
  <text x="207" y="521" text-anchor="middle" class="box-title">Compiler</text>
  <text x="207" y="543" text-anchor="middle" class="small">executable app bundle</text>

  <rect x="75" y="585" width="265" height="74" class="blue" />
  <text x="207" y="616" text-anchor="middle" class="box-title">Verifier</text>
  <text x="207" y="638" text-anchor="middle" class="small">visible and hidden tests</text>

  <rect x="75" y="680" width="265" height="74" class="blue" />
  <text x="207" y="711" text-anchor="middle" class="box-title">Versioned Cache</text>
  <text x="207" y="733" text-anchor="middle" class="small">split, difficulty, hash</text>

  <path d="M207 279 L207 300" class="arrow" />
  <path d="M207 374 L207 395" class="arrow" />
  <path d="M207 469 L207 490" class="arrow" />
  <path d="M207 564 L207 585" class="arrow" />
  <path d="M207 659 L207 680" class="arrow" />

  <rect x="435" y="115" width="510" height="705" class="lane" />
  <text x="690" y="151" text-anchor="middle" class="lane-title">OpenEnv Runtime</text>
  <text x="690" y="174" text-anchor="middle" class="lane-subtitle">cache-backed, isolated, typed episodes</text>

  <rect x="475" y="215" width="190" height="78" class="green" />
  <text x="570" y="246" text-anchor="middle" class="box-title">reset(seed)</text>
  <text x="570" y="268" text-anchor="middle" class="small">load cached bundle</text>

  <rect x="715" y="215" width="190" height="78" class="green" />
  <text x="810" y="246" text-anchor="middle" class="box-title">Sampler</text>
  <text x="810" y="268" text-anchor="middle" class="small">validated cache slice</text>

  <rect x="475" y="345" width="190" height="78" class="green" />
  <text x="570" y="376" text-anchor="middle" class="box-title">Episode State</text>
  <text x="570" y="398" text-anchor="middle" class="small">phase, history, diff</text>

  <rect x="715" y="345" width="190" height="78" class="green" />
  <text x="810" y="376" text-anchor="middle" class="box-title">Typed Tools</text>
  <text x="810" y="398" text-anchor="middle" class="small">inspect, request, patch</text>

  <rect x="475" y="475" width="190" height="78" class="green" />
  <text x="570" y="506" text-anchor="middle" class="box-title">App Sandbox</text>
  <text x="570" y="528" text-anchor="middle" class="small">cloned workspace</text>

  <rect x="715" y="475" width="190" height="78" class="green" />
  <text x="810" y="506" text-anchor="middle" class="box-title">Verifier</text>
  <text x="810" y="528" text-anchor="middle" class="small">security + regression</text>

  <rect x="475" y="605" width="190" height="78" class="green" />
  <text x="570" y="636" text-anchor="middle" class="box-title">Reward Engine</text>
  <text x="570" y="658" text-anchor="middle" class="small">components + penalties</text>

  <rect x="715" y="605" width="190" height="78" class="green" />
  <text x="810" y="636" text-anchor="middle" class="box-title">API + Logger</text>
  <text x="810" y="658" text-anchor="middle" class="small">/ws, /step, artifacts</text>

  <path d="M665 254 L715 254" class="arrow" />
  <path d="M570 293 L570 345" class="arrow" />
  <path d="M810 293 L810 345" class="arrow" />
  <path d="M665 384 L715 384" class="arrow" />
  <path d="M715 405 C665 425 620 445 570 475" class="arrow" />
  <path d="M665 514 L715 514" class="arrow" />
  <path d="M715 535 C665 560 620 585 570 605" class="arrow" />
  <path d="M665 644 L715 644" class="arrow" />
  <path d="M570 605 C430 555 430 420 475 384" class="arrow dash" />

  <rect x="1015" y="165" width="305" height="380" class="lane" />
  <text x="1167" y="202" text-anchor="middle" class="lane-title">Single LLM Agent</text>
  <text x="1167" y="225" text-anchor="middle" class="lane-subtitle">one JSON action at a time</text>

  <rect x="1055" y="265" width="225" height="68" class="orange" />
  <text x="1167" y="306" text-anchor="middle" class="box-title">Parse Observation</text>

  <rect x="1055" y="365" width="225" height="68" class="orange" />
  <text x="1167" y="392" text-anchor="middle" class="box-title">Reason Over</text>
  <text x="1167" y="414" text-anchor="middle" class="small">policy and code</text>

  <rect x="1055" y="465" width="225" height="68" class="orange" />
  <text x="1167" y="492" text-anchor="middle" class="box-title">Emit Action</text>
  <text x="1167" y="514" text-anchor="middle" class="small">typed JSON payload</text>

  <path d="M1167 333 L1167 365" class="arrow" />
  <path d="M1167 433 L1167 465" class="arrow" />

  <rect x="1375" y="115" width="380" height="705" class="lane" />
  <text x="1565" y="151" text-anchor="middle" class="lane-title">Training, Eval, Demo</text>
  <text x="1565" y="174" text-anchor="middle" class="lane-subtitle">measured improvement evidence</text>

  <rect x="1420" y="220" width="290" height="74" class="purple" />
  <text x="1565" y="251" text-anchor="middle" class="box-title">Parallel Rollouts</text>
  <text x="1565" y="273" text-anchor="middle" class="small">fast cached reset</text>

  <rect x="1420" y="320" width="290" height="74" class="purple" />
  <text x="1565" y="351" text-anchor="middle" class="box-title">TRL GRPO + LoRA</text>
  <text x="1565" y="373" text-anchor="middle" class="small">policy update</text>

  <rect x="1420" y="420" width="290" height="74" class="purple" />
  <text x="1565" y="451" text-anchor="middle" class="box-title">Trackio Metrics</text>
  <text x="1565" y="473" text-anchor="middle" class="small">reward and pass rates</text>

  <rect x="1420" y="520" width="290" height="74" class="purple" />
  <text x="1565" y="551" text-anchor="middle" class="box-title">Held-out Evaluation</text>
  <text x="1565" y="573" text-anchor="middle" class="small">baseline vs trained</text>

  <rect x="1420" y="620" width="290" height="74" class="purple" />
  <text x="1565" y="651" text-anchor="middle" class="box-title">Demo Artifacts</text>
  <text x="1565" y="673" text-anchor="middle" class="small">rollouts and summaries</text>

  <path d="M1565 294 L1565 320" class="arrow" />
  <path d="M1565 394 L1565 420" class="arrow" />
  <path d="M1565 494 L1565 520" class="arrow" />
  <path d="M1565 594 L1565 620" class="arrow" />

  <rect x="540" y="875" width="710" height="94" class="gray" />
  <text x="895" y="912" text-anchor="middle" class="box-title">Feedback / Adaptation Loop</text>
  <text x="895" y="938" text-anchor="middle" class="small">episode logs -&gt; failure analysis -&gt; sampling weights -&gt; new cache jobs</text>

  <path d="M340 717 C405 717 410 254 475 254" class="arrow" />
  <text x="386" y="483" class="label">cached bundle</text>
  <path d="M905 644 C1055 640 1260 255 1420 257" class="arrow" />
  <text x="1160" y="589" class="label">terminal reward</text>
  <path d="M905 644 C970 655 1015 680 1060 700 C1180 760 1320 725 1420 657" class="arrow" />
  <text x="1160" y="750" class="label">rollout artifacts</text>
  <path d="M905 644 C965 610 1005 330 1055 299" class="arrow" />
  <text x="943" y="475" class="label">observation</text>
  <path d="M1055 499 C1005 500 955 410 905 384" class="arrow" />
  <text x="958" y="448" class="label">JSON action</text>
  <path d="M1420 357 C1360 357 1320 399 1280 399" class="arrow dash" />
  <text x="1327" y="383" class="label">checkpoint</text>
  <path d="M810 683 C820 760 850 820 895 875" class="arrow" />
  <path d="M540 922 C360 925 210 850 207 754" class="arrow dash" />
</svg>
